<?xml version="1.0" standalone="no"?>
<!DOCTYPE svg PUBLIC "-//W3C//DTD SVG 20010904//EN"
 "http://www.w3.org/TR/2001/REC-SVG-20010904/DTD/svg10.dtd">
<svg version="1.0" xmlns="http://www.w3.org/2000/svg"
 width="81.000000pt" height="94.000000pt" viewBox="0 0 81.000000 94.000000"
 preserveAspectRatio="xMidYMid meet">
<metadata>
Created by potrace 1.16, written by Peter Selinger 2001-2019
</metadata>
<g transform="translate(0.000000,94.000000) scale(0.100000,-0.100000)"
fill="#000000" stroke="none">
<path d="M0 470 l0 -470 405 0 405 0 0 470 0 470 -405 0 -405 0 0 -470z m400
-170 l0 -220 -160 0 -160 0 0 220 0 220 160 0 160 0 0 -220z m340 0 l0 -220
-60 0 -60 0 0 220 0 220 60 0 60 0 0 -220z"/>
</g>
</svg>
